<svg id="visual" viewBox="0 0 960 540" width="960" height="540" xmlns="http://www.w3.org/2000/svg" xmlns:xlink="http://www.w3.org/1999/xlink" version="1.1"><rect x="0" y="0" width="960" height="540" fill="#1f1f1f"></rect><path d="M0 78L22.8 72.3C45.7 66.7 91.3 55.3 137 49.5C182.7 43.7 228.3 43.3 274 49C319.7 54.7 365.3 66.3 411.2 68C457 69.7 503 61.3 548.8 66C594.7 70.7 640.3 88.3 686 92.7C731.7 97 777.3 88 823 82.3C868.7 76.7 914.3 74.3 937.2 73.2L960 72L960 0L937.2 0C914.3 0 868.7 0 823 0C777.3 0 731.7 0 686 0C640.3 0 594.7 0 548.8 0C503 0 457 0 411.2 0C365.3 0 319.7 0 274 0C228.3 0 182.7 0 137 0C91.3 0 45.7 0 22.8 0L0 0Z" fill="#008cff" stroke-linecap="round" stroke-linejoin="miter"></path></svg>